<!--?xml version="1.0" encoding="UTF-8"?--><svg id="Layer_1" xmlns="http://www.w3.org/2000/svg" viewBox="0 0 746.03 251.96" width="746.030029296875" height="251.9600067138672"><defs><style>.cls-1,.cls-2{fill:#0d52d0;}.cls-2{fill-rule:evenodd;}</style></defs><path class="cls-2 svg-elem-1" d="M5.21,1.52C-.21,5.32,0,1.51,0,99.66c0,88.29.06,90.89,1.96,94,2.91,4.77,6.29,6.01,18.54,6.75,15.52.95,25.82,2.33,34.5,4.62,27.78,7.35,48.53,20.95,57.21,37.5,3.78,7.2,6.45,9.43,11.29,9.43,4.49,0,7.61-2.28,10.19-7.45,6.37-12.74,16.32-21.82,32.81-29.94,16.73-8.24,31.72-11.89,57.32-13.97,16.28-1.32,16.33-1.33,19.5-4.5l3.18-3.18.27-92c.29-100.42.54-95.75-5.34-99.6-2.14-1.4-4.32-1.57-14.23-1.05-38.27,1.98-75.37,14.54-97.21,32.91-6.13,5.15-6.93,5.56-8.14,4.07-3.18-3.88-17.99-13.81-27.28-18.29C76.6,10.3,56.46,4.62,32.7,1.51c-15.4-2.02-24.59-2.01-27.48.02M20,100.51v80.15l9.25.62c29.61,1.98,59.69,12.31,79.17,27.17l4.58,3.5V56.39l-5.25-5.08c-2.89-2.79-7.27-6.43-9.75-8.08-16.4-10.96-43.04-19.39-69.75-22.06l-8.25-.82v80.15M221.5,20.67c-11.13,1.04-29.48,4.62-40.06,7.83-20.22,6.13-31.82,12.41-42.69,23.13l-5.75,5.67v155.57l7.75-5.57c19.91-14.3,48.54-24.02,76.5-25.96l9.75-.68v-80.35c0-44.19-.34-80.28-.75-80.18-.41.09-2.55.34-4.75.54"></path><path class="cls-1 svg-elem-2" d="M426.43,149.05h-81.4c3,13.4,14.4,21.6,30.8,21.6,11.4,0,19.6-3.4,27-10.4l16.6,18c-10,11.4-25,17.4-44.4,17.4-37.2,0-61.4-23.4-61.4-55.4s24.6-55.4,57.4-55.4,56,21.2,56,55.8c0,2.4-.4,5.8-.6,8.4ZM344.63,130.85h53c-2.2-13.6-12.4-22.4-26.4-22.4s-24.4,8.6-26.6,22.4Z"></path><path class="cls-1 svg-elem-3" d="M450.03,54.05h32.4v113.6h70.2v26.4h-102.6V54.05Z"></path><path class="cls-1 svg-elem-4" d="M564.83,54.05c0-9.8,7.8-17.4,19.4-17.4s19.4,7.2,19.4,16.8c0,10.4-7.8,18-19.4,18s-19.4-7.6-19.4-17.4ZM568.63,86.45h31.2v107.6h-31.2v-107.6Z"></path><path class="cls-1 svg-elem-5" d="M746.03,140.25c0,33.8-23.4,55.4-53.6,55.4-14.4,0-26-4.6-33.8-14v12.4h-29.8V45.65h31.2v52.2c8-8.8,19-13,32.4-13,30.2,0,53.6,21.6,53.6,55.4ZM714.43,140.25c0-18.6-11.8-29.8-27.4-29.8s-27.4,11.2-27.4,29.8,11.8,29.8,27.4,29.8,27.4-11.2,27.4-29.8Z"></path></svg>